<?xml version="1.0" encoding="UTF-8" standalone="no"?>
<!DOCTYPE svg PUBLIC "-//W3C//DTD SVG 1.1//EN" "http://www.w3.org/Graphics/SVG/1.1/DTD/svg11.dtd">
<svg width="100%" height="100%" viewBox="0 0 8 8" version="1.1" xmlns="http://www.w3.org/2000/svg" xmlns:xlink="http://www.w3.org/1999/xlink" xml:space="preserve" xmlns:serif="http://www.serif.com/" style="fill-rule:evenodd;clip-rule:evenodd;stroke-linejoin:round;stroke-miterlimit:1.41421;">
    <path d="M3,0C2.45,0 2,0.45 2,1L1,1C0.45,1 0,1.45 0,2L7,2C7,1.45 6.55,1 6,1L5,1C5,0.45 4.55,0 4,0L3,0ZM1,3L1,7.81C1,7.92 1.08,8 1.19,8L5.82,8C5.93,8 6.01,7.92 6.01,7.81L6.01,3L5.01,3L5.01,6.5C5.01,6.78 4.79,7 4.51,7C4.23,7 4.01,6.78 4.01,6.5L4.01,3L3.01,3L3.01,6.5C3.01,6.78 2.79,7 2.51,7C2.23,7 2.01,6.78 2.01,6.5L2.01,3L1.01,3L1,3Z" style="fill:rgb(220,53,69);fill-rule:nonzero;"/>
</svg>
